<svg xmlns="http://www.w3.org/2000/svg" width="340" height="100" viewBox="0 0 89.959 26.458"><path d="M87.204 3.484a105.786 105.786 0 0 0-1.124 3.204 178.096 178.096 0 0 0-1.066 3.41 159.735 159.735 0 0 0-.883 3.155l-.228.848c-.066.249-.12.474-.161.677l2.756.815a3.402 3.402 0 0 1 .082-.376l.118-.442c.149-.554.327-1.195.535-1.922.222-.737.46-1.507.713-2.31l.75-2.377a242.626 242.626 0 0 1 .694-2.163c.227-.66.417-1.203.569-1.63Zm-2.415 12.827a1.728 1.728 0 0 0-1.33.154 1.665 1.665 0 0 0-.794 1.057c-.127.472-.078.907.142 1.308a1.614 1.614 0 0 0 1.035.808c.506.136.952.097 1.338-.115.385-.213.642-.561.772-1.045.132-.495.084-.95-.146-1.364a1.556 1.556 0 0 0-1.017-.803zM67.803 7.764c-.061.366-.123.805-.183 1.318-.05.5-.097 1.049-.146 1.647a15 15 0 0 0-1.172-.42 8.816 8.816 0 0 0-1.135-.312l-.951 2.636a23.826 23.826 0 0 1 .933.274c.39.11.78.233 1.172.366.402.123.725.238.97.348l-.037 1.135a27.297 27.297 0 0 0-1.684 2.397c-.476.77-.855 1.417-1.135 1.941a89.76 89.76 0 0 0-.476.915l2.362 1.464a20.91 20.91 0 0 1 .841-1.83c.013.793.037 1.532.074 2.215.036.683.091 1.274.164 1.775l2.6-.073a36.825 36.825 0 0 1-.092-1.702 132.361 132.361 0 0 1-.018-2.306c0-1.281.018-2.624.054-4.027 1.025-1.16 2.032-2.026 3.02-2.6 1-.585 1.849-.878 2.545-.878.45 0 .817.116 1.098.348.28.22.494.513.64.878.16.354.263.733.312 1.135a7.706 7.706 0 0 1 .073 1.721c-.012.195-.03.397-.055.604a5.4 5.4 0 0 0-1.263-.366 5.999 5.999 0 0 0-1.062-.11c-1.024 0-1.879.19-2.562.567-.672.379-1.177.873-1.519 1.483a3.853 3.853 0 0 0-.494 1.885c0 .598.176 1.16.53 1.684.354.513.836.927 1.447 1.245.61.317 1.305.475 2.086.475 1.062 0 1.928-.225 2.598-.676a5.106 5.106 0 0 0 1.612-1.666c.11.147.22.305.33.475.11.16.213.318.31.477L81 19.918a9.824 9.824 0 0 0-.53-.788 7.627 7.627 0 0 0-.532-.676c.11-.525.184-1.044.22-1.556.049-.525.073-.964.073-1.319 0-2.012-.439-3.55-1.317-4.612-.867-1.062-2.045-1.592-3.533-1.592a6.18 6.18 0 0 0-2.764.659 12.383 12.383 0 0 0-2.526 1.665c.05-.793.098-1.519.146-2.178.061-.659.123-1.196.184-1.61zM75.326 18.8c.317 0 .616.05.897.147.292.098.574.225.842.384-.183.623-.44 1.074-.77 1.355-.328.268-.81.402-1.446.402-.414 0-.786-.085-1.116-.256-.33-.183-.494-.451-.494-.805 0-.16.067-.33.201-.513.148-.195.373-.36.678-.494.317-.147.72-.22 1.208-.22zm-13.376-.954q-2.306-.11-3.935-.659-1.61-.549-2.618-1.391-.988-.842-1.464-1.867-.457-1.025-.457-2.123 0-.989.44-2.179.438-1.208 1.464-2.379 1.024-1.172 2.782-2.069-1.264.074-3.405.477-2.141.402-5.528 1.19l-.274-2.783q1.135-.31 2.654-.604 1.537-.293 3.258-.512 1.739-.238 3.533-.367 1.794-.146 3.441-.146 1.354 0 2.525.11l.055 2.49q-.768.036-1.812.438-1.043.385-2.122 1.044-1.062.659-1.996 1.52-.934.86-1.501 1.83-.567.97-.567 1.958 0 .787.42 1.336.422.55 1.135.897.714.329 1.574.53.88.184 1.776.257.915.074 1.72.092zm-14.864-8.61q-1.062 2.452-1.647 4.136-.586 1.684-.916 2.873.75-.731 1.391-.988.641-.274 1.209-.274.86 0 1.464.33.622.329 1.116 1.116.495.787.951 2.142l.385 1.116q.184.513.403.842.22.33.55.366.475-.018.915-.842.457-.842.841-2.526l2.435 1.556q-.256.75-.604 1.592-.33.842-.824 1.593-.476.75-1.19 1.226-.713.475-1.702.475-1.409 0-2.251-.914-.824-.915-1.226-2.325-.385-1.39-.806-2.086-.402-.714-.988-.75-.934.018-1.611.713-.66.696-1.172 2.087-.512 1.373-1.006 3.46l-2.91-.788q.182-1.08.53-2.544.348-1.483.787-3.167.44-1.684.934-3.368.494-1.684 1.007-3.203.53-1.52 1.006-2.654zM32.074 17.5q-.677-1.024-1.41-2.434-.713-1.41-1.409-3.002-.696-1.61-1.299-3.24-.53.257-1.044.513l-1.025.512-1.28-2.47q.603-.33 1.207-.623.604-.293 1.208-.55-.402-1.225-.695-2.305-.293-1.098-.458-1.977l2.672-.512q.293 1.519 1.044 3.77 1.245-.439 2.398-.75 1.171-.312 2.215-.494.11-.824.146-1.52.055-.695.055-1.208V.862q0-.146-.018-.274l2.8.293q0 .494-.036 1.208-.037.695-.11 1.5h.384q.604 0 1.355.166.768.146 1.464.549.713.402 1.171 1.153.476.732.476 1.903 0 1.19-.385 2.123-.384.916-.988 1.593-.604.659-1.28 1.116-.677.44-1.282.66l-1.629-2.307q1.263-.53 1.848-1.116.586-.586.75-1.08.184-.494.184-.769 0-.623-.33-.915-.33-.293-.823-.385-.495-.091-1.007-.091h-.22q-.127.878-.31 1.739-.184.841-.403 1.573l-2.91-.256q.2-.658.365-1.299.165-.66.293-1.3-.787.202-1.61.476-.806.257-1.648.586.586 1.483 1.263 3.002.696 1.501 1.446 2.929.77 1.427 1.593 2.617z" style="font-size:37.3353px;line-height:.6;font-family:&quot;Mochiy Pop P One&quot;;-inkscape-font-specification:&quot;Mochiy Pop P One&quot;;letter-spacing:-1.24883px;fill:#fff;stroke-width:1.90664;stroke-linecap:round;stroke-linejoin:bevel"/><g style="fill:#fff"><path d="M-34.425-.472A28.084 28.084 0 0 0-52.907 7.12a3.502 3.502 0 0 0-.155 4.95 3.502 3.502 0 0 0 4.949.153 21.09 21.09 0 0 1 19.003-5.2 20.958 20.958 0 0 1 14.972 12.725 3.502 3.502 0 0 0 4.545 1.969 3.502 3.502 0 0 0 1.966-4.546A27.984 27.984 0 0 0-27.593.186a28.118 28.118 0 0 0-6.832-.658z" style="color:#000;fill:#fff;stroke-width:1.65417;stroke-linecap:round;stroke-linejoin:round;-inkscape-stroke:none;paint-order:stroke fill markers" transform="translate(25.29 .225) scale(.46824)"/><path d="M-45.202 22.807a3.502 3.502 0 0 0-4.483 2.107 3.502 3.502 0 0 0 2.108 4.483l19.324 6.954-19.162 9.363a3.502 3.502 0 0 0-1.605 4.681 3.502 3.502 0 0 0 4.682 1.61l26.599-12.997a3.502 3.502 0 0 0-.354-6.44z" style="color:#000;fill:#fff;stroke-width:1.65417;stroke-linecap:round;stroke-linejoin:round;-inkscape-stroke:none" transform="translate(25.29 .225) scale(.46824)"/></g><path d="M29.679 25.488c-.23.23-2.882-.65-3.204-.598-.322.05-2.571 1.707-2.862 1.559-.29-.148-.273-2.942-.421-3.232-.148-.29-2.418-1.918-2.367-2.24.05-.322 2.713-1.169 2.943-1.4.23-.23 1.078-2.892 1.4-2.943.322-.051 1.95 2.22 2.24 2.367.29.148 3.084.13 3.232.421.148.29-1.508 2.54-1.56 2.862-.05.322.83 2.974.599 3.204z" style="fill:#fff;stroke-width:.781265;stroke-linecap:round;stroke-linejoin:bevel"/></svg>