<svg xmlns="http://www.w3.org/2000/svg" width="693.519" height="205.708" viewBox="0 0 183.494 54.426"><path d="M177.875 7.107a215.778 215.778 0 0 0-2.293 6.536 363.273 363.273 0 0 0-2.173 6.955 325.821 325.821 0 0 0-1.802 6.436l-.464 1.73c-.135.506-.245.966-.33 1.38l5.623 1.663a6.94 6.94 0 0 1 .166-.767l.242-.902c.303-1.13.666-2.437 1.09-3.921.453-1.502.94-3.073 1.455-4.712l1.53-4.847a494.9 494.9 0 0 1 1.415-4.413c.464-1.345.85-2.453 1.16-3.323zM172.95 33.27c-.96-.258-1.866-.152-2.713.316-.823.476-1.363 1.194-1.62 2.155-.259.962-.16 1.85.29 2.668a3.292 3.292 0 0 0 2.11 1.648c1.033.277 1.942.198 2.73-.235.785-.434 1.31-1.144 1.574-2.13.27-1.01.172-1.937-.297-2.784-.445-.841-1.136-1.387-2.074-1.638zm-34.648-17.433c-.125.747-.25 1.643-.374 2.688-.1 1.02-.198 2.14-.298 3.36a30.596 30.596 0 0 0-2.39-.858 17.983 17.983 0 0 0-2.315-.635l-1.94 5.376a48.6 48.6 0 0 1 1.903.56c.797.225 1.593.474 2.39.747.82.25 1.48.485 1.978.71l-.074 2.314a55.679 55.679 0 0 0-3.435 4.89c-.97 1.569-1.743 2.889-2.315 3.959a183.09 183.09 0 0 0-.97 1.867l4.816 2.986a42.65 42.65 0 0 1 1.717-3.733c.025 1.618.075 3.124.15 4.517.074 1.394.186 2.6.335 3.622l5.302-.15a75.115 75.115 0 0 1-.187-3.472 269.986 269.986 0 0 1-.037-4.704c0-2.613.037-5.351.112-8.214 2.09-2.364 4.144-4.131 6.16-5.301 2.04-1.195 3.77-1.792 5.19-1.792.92 0 1.667.236 2.24.71.572.447 1.008 1.045 1.307 1.79.323.723.535 1.495.634 2.316a15.718 15.718 0 0 1 .15 3.51c-.025.398-.062.809-.112 1.232a11.013 11.013 0 0 0-2.576-.747c-.822-.15-1.543-.224-2.166-.224-2.09 0-3.833.386-5.227 1.157-1.37.772-2.4 1.78-3.098 3.024-.672 1.22-1.008 2.502-1.008 3.846 0 1.22.36 2.364 1.082 3.435.722 1.045 1.705 1.89 2.95 2.538 1.244.648 2.663.97 4.256.97 2.165 0 3.932-.46 5.3-1.38 1.395-.921 2.49-2.053 3.287-3.398.224.3.448.622.672.97.224.325.436.648.635.972l2.875-4.667a20.038 20.038 0 0 0-1.083-1.606c-.348-.497-.71-.958-1.083-1.38.224-1.071.374-2.13.448-3.174.1-1.07.15-1.967.15-2.69 0-4.105-.896-7.242-2.688-9.407-1.768-2.166-4.17-3.248-7.206-3.248-1.942 0-3.82.448-5.638 1.344a25.259 25.259 0 0 0-5.152 3.397c.1-1.618.2-3.098.298-4.442.125-1.345.25-2.44.374-3.286zm15.345 22.514c.647 0 1.257.1 1.83.298.596.2 1.17.46 1.717.784-.374 1.27-.897 2.19-1.57 2.763-.67.547-1.654.822-2.95.822-.845 0-1.604-.175-2.276-.523-.672-.374-1.007-.921-1.007-1.643 0-.324.136-.672.41-1.046.3-.398.76-.734 1.382-1.007.647-.3 1.468-.448 2.464-.448zm-27.283-1.947q-4.704-.224-8.027-1.344-3.286-1.12-5.34-2.838-2.015-1.717-2.986-3.808-.933-2.09-.933-4.33 0-2.017.896-4.444.896-2.464 2.987-4.853 2.09-2.39 5.675-4.22-2.577.15-6.945.972-4.368.82-11.275 2.426l-.56-5.675q2.315-.634 5.413-1.232 3.137-.597 6.646-1.045 3.547-.485 7.206-.747 3.66-.298 7.02-.298 2.762 0 5.151.224l.112 5.077q-1.568.075-3.696.896-2.128.784-4.33 2.128-2.166 1.344-4.07 3.1-1.905 1.754-3.062 3.733-1.157 1.978-1.157 3.995 0 1.605.858 2.725.86 1.12 2.315 1.83 1.456.67 3.21 1.082 1.793.374 3.622.523 1.867.15 3.51.187zM96.044 18.84q-2.166 5.004-3.36 8.439-1.195 3.434-1.867 5.86 1.53-1.492 2.837-2.015 1.307-.56 2.465-.56 1.754 0 2.986.672 1.27.672 2.278 2.278 1.008 1.605 1.94 4.368l.785 2.277q.374 1.046.822 1.718.448.672 1.12.746.97-.037 1.867-1.717.933-1.717 1.717-5.152l4.966 3.173q-.523 1.53-1.233 3.248-.672 1.718-1.68 3.249-.97 1.53-2.426 2.5-1.456.97-3.473.97-2.874 0-4.592-1.865-1.68-1.867-2.5-4.742-.785-2.837-1.644-4.256-.82-1.456-2.016-1.53-1.904.037-3.286 1.455-1.344 1.42-2.39 4.257-1.045 2.8-2.053 7.056l-5.936-1.605q.373-2.203 1.083-5.19.71-3.024 1.605-6.46.896-3.434 1.904-6.87 1.008-3.434 2.054-6.532 1.083-3.1 2.053-5.414zm-30.62 16.857q-1.382-2.09-2.875-4.965-1.456-2.875-2.875-6.123-1.42-3.286-2.65-6.608-1.083.522-2.13 1.045l-2.09 1.045-2.613-5.04q1.232-.672 2.464-1.27 1.232-.597 2.464-1.12-.82-2.5-1.418-4.704-.598-2.24-.934-4.032l5.45-1.045q.598 3.099 2.13 7.69 2.538-.895 4.89-1.53 2.39-.635 4.518-1.008.224-1.68.298-3.1.112-1.418.112-2.463v-.71q0-.298-.037-.56l5.712.598q0 1.008-.074 2.464-.075 1.419-.224 3.062h.784q1.232 0 2.763.336 1.568.298 2.986 1.12 1.456.82 2.39 2.352.97 1.493.97 3.883 0 2.426-.784 4.33-.784 1.867-2.016 3.249-1.232 1.344-2.613 2.277-1.38.896-2.614 1.344l-3.322-4.704q2.576-1.083 3.77-2.277 1.195-1.195 1.53-2.203.375-1.008.375-1.568 0-1.27-.672-1.867-.673-.597-1.68-.784-1.01-.187-2.054-.187h-.448q-.26 1.792-.635 3.547-.373 1.717-.82 3.21l-5.937-.522q.41-1.344.746-2.65.336-1.345.598-2.651-1.606.41-3.286.97-1.643.523-3.36 1.195 1.195 3.024 2.576 6.123 1.42 3.062 2.95 5.974 1.568 2.912 3.248 5.339z" style="font-size:37.3353px;line-height:.6;font-family:&quot;Mochiy Pop P One&quot;;-inkscape-font-specification:&quot;Mochiy Pop P One&quot;;letter-spacing:-1.24883px;fill:#fff;stroke-width:3.8891;stroke-linecap:round;stroke-linejoin:bevel"/><g style="fill:#fff"><path d="M-34.425-.472A28.084 28.084 0 0 0-52.907 7.12a3.502 3.502 0 0 0-.155 4.95 3.502 3.502 0 0 0 4.949.153 21.09 21.09 0 0 1 19.003-5.2 20.958 20.958 0 0 1 14.972 12.725 3.502 3.502 0 0 0 4.545 1.969 3.502 3.502 0 0 0 1.966-4.546A27.984 27.984 0 0 0-27.593.186a28.118 28.118 0 0 0-6.832-.658z" style="color:#000;fill:#fff;stroke-width:1.65417;stroke-linecap:round;stroke-linejoin:round;-inkscape-stroke:none;paint-order:stroke fill markers" transform="translate(51.586 .46) scale(.9551)"/><path d="M-45.202 22.807a3.502 3.502 0 0 0-4.483 2.107 3.502 3.502 0 0 0 2.108 4.483l19.324 6.954-19.162 9.363a3.502 3.502 0 0 0-1.605 4.681 3.502 3.502 0 0 0 4.682 1.61l26.599-12.997a3.502 3.502 0 0 0-.354-6.44z" style="color:#000;fill:#fff;stroke-width:1.65417;stroke-linecap:round;stroke-linejoin:round;-inkscape-stroke:none" transform="translate(51.586 .46) scale(.9551)"/></g><path d="M202.758 146.389c-1.472 1.471-18.403-4.146-20.459-3.82-2.055.326-16.422 10.9-18.277 9.955-1.854-.945-1.744-18.783-2.689-20.638-.945-1.854-15.441-12.25-15.115-14.306.325-2.056 17.324-7.463 18.796-8.935 1.472-1.472 6.88-18.471 8.935-18.797 2.056-.325 12.452 14.171 14.306 15.116 1.855.945 19.693.835 20.638 2.69.945 1.854-9.63 16.22-9.955 18.276-.325 2.056 5.291 18.987 3.82 20.459z" style="fill:#fff;stroke-width:4.98903;stroke-linecap:round;stroke-linejoin:bevel" transform="translate(-4.227 5.689) scale(.31942)"/></svg>