<svg xmlns="http://www.w3.org/2000/svg" width="204.824" height="256" viewBox="0 0 54.193 67.733"><defs><clipPath id="a" clipPathUnits="userSpaceOnUse"><path d="M136.36-5.938c-5.864-.03-6.386.089-10.936.71-4.55.622-9.012 2.892-10.353 3.527-1.341.634-7.818 3.847-10.988 9.19s-4.754 10.476-5.6 18.38c-.844 7.903 1.132 22.327 1.232 22.873-4.341.656-10.173 5.42-10.173 13.382 0 7.961 9.018 12.968 11.403 13.937 2.385.969 7.154 3.502 7.154 3.502s6.374 23.288 39.825 25.405c33.451 2.117 39.736-17.812 40.474-23.398.737-5.587 1.546-8.788-.106-16.468-1.652-7.68-1.646-12.753-1.405-21.772.242-9.02 1.796-13.099-2.06-21.982-3.855-8.882-9.61-15.154-19.566-20.625s-23.038-6.631-28.902-6.66Z" style="display:inline;fill:#fca;fill-opacity:.5;stroke:none;stroke-width:.399825;stroke-opacity:1"/></clipPath><clipPath id="b" clipPathUnits="userSpaceOnUse"><path d="M136.36-5.938c-5.864-.03-6.386.089-10.936.71-4.55.622-9.012 2.892-10.353 3.527-1.341.634-7.818 3.847-10.988 9.19s-4.754 10.476-5.6 18.38c-.844 7.903 1.132 22.327 1.232 22.873-4.341.656-10.173 5.42-10.173 13.382 0 7.961 9.018 12.968 11.403 13.937 2.385.969 7.154 3.502 7.154 3.502s6.374 23.288 39.825 25.405c33.451 2.117 39.736-17.812 40.474-23.398.737-5.587 1.546-8.788-.106-16.468-1.652-7.68-1.646-12.753-1.405-21.772.242-9.02 1.796-13.099-2.06-21.982-3.855-8.882-9.61-15.154-19.566-20.625s-23.038-6.631-28.902-6.66Z" style="display:inline;fill:#fca;fill-opacity:.5;stroke:none;stroke-width:.399825;stroke-opacity:1"/></clipPath><clipPath id="c" clipPathUnits="userSpaceOnUse"><path d="M92.222-100.62c-4.167 4.126-4.452 4.578-7.23 8.236-2.778 3.657-4.328 8.417-4.828 9.814-.5 1.397-2.808 8.248-1.27 14.267 1.536 6.02 4.045 10.77 9.036 16.956 4.992 6.186 16.588 14.988 17.045 15.303-2.606 3.534-3.36 11.027 2.27 16.656 5.629 5.63 15.546 2.793 17.917 1.792 2.371-1.001 7.536-2.582 7.536-2.582s20.974 11.96 46.124-10.197c25.15-22.156 15.502-40.692 12.074-45.164-3.429-4.471-5.12-7.307-11.72-11.57-6.599-4.262-10.181-7.853-16.388-14.401-6.207-6.549-7.992-10.532-17-14.087-9.007-3.555-17.511-3.92-28.42-.749-10.908 3.171-20.979 11.602-25.146 15.727z" style="display:inline;fill:#fca;fill-opacity:.5;stroke:none;stroke-width:.399825;stroke-opacity:1"/></clipPath><clipPath id="d" clipPathUnits="userSpaceOnUse"><path d="M92.222-100.62c-4.167 4.126-4.452 4.578-7.23 8.236-2.778 3.657-4.328 8.417-4.828 9.814-.5 1.397-2.808 8.248-1.27 14.267 1.536 6.02 4.045 10.77 9.036 16.956 4.992 6.186 16.588 14.988 17.045 15.303-2.606 3.534-3.36 11.027 2.27 16.656 5.629 5.63 15.546 2.793 17.917 1.792 2.371-1.001 7.536-2.582 7.536-2.582s20.974 11.96 46.124-10.197c25.15-22.156 15.502-40.692 12.074-45.164-3.429-4.471-5.12-7.307-11.72-11.57-6.599-4.262-10.181-7.853-16.388-14.401-6.207-6.549-7.992-10.532-17-14.087-9.007-3.555-17.511-3.92-28.42-.749-10.908 3.171-20.979 11.602-25.146 15.727z" style="display:inline;fill:#fca;fill-opacity:.5;stroke:none;stroke-width:.399825;stroke-opacity:1"/></clipPath><clipPath id="e" clipPathUnits="userSpaceOnUse"><path d="M136.36-5.938c-5.864-.03-6.386.089-10.936.71-4.55.622-9.012 2.892-10.353 3.527-1.341.634-7.818 3.847-10.988 9.19s-4.754 10.476-5.6 18.38c-.844 7.903 1.132 22.327 1.232 22.873-4.341.656-10.173 5.42-10.173 13.382 0 7.961 9.018 12.968 11.403 13.937 2.385.969 7.154 3.502 7.154 3.502s6.374 23.288 39.825 25.405c33.451 2.117 39.736-17.812 40.474-23.398.737-5.587 1.546-8.788-.106-16.468-1.652-7.68-1.646-12.753-1.405-21.772.242-9.02 1.796-13.099-2.06-21.982-3.855-8.882-9.61-15.154-19.566-20.625s-23.038-6.631-28.902-6.66Z" style="display:inline;fill:#fca;fill-opacity:.5;stroke:none;stroke-width:.399825;stroke-opacity:1"/></clipPath></defs><g transform="translate(135.521 -14.605)"><path d="M-101.407 75.006c.427 2.039-.688 3.05-.238 4.264.247.668 6.182 4.651 8.192 2.264 1.723-2.047-3.505-2.47-4.023-4.02-.702-2.1 1.487-4.997-.637-4.805-1.484.134-3.705.332-3.705.332z" style="fill:#78a2d2;stroke-width:.706425;stroke-linecap:round;stroke-linejoin:bevel"/><ellipse cx="-116.125" cy="46.232" rx=".926" ry=".589" style="fill:#f4ddcc;stroke-width:.765834;stroke-linecap:round;stroke-linejoin:bevel" transform="rotate(-19.112)"/><path d="M-122.014 63.36c-3.767-3.849-4.298-1.916-5.538-1.164-2.243 1.361-4.615 3.452-3.615 4.573 1.002 1.122 4.526-2.72 6.955-.537.818.735 2.198-2.873 2.198-2.873z" style="fill:#78a2d2;stroke-width:.706425;stroke-linecap:round;stroke-linejoin:bevel"/></g><path d="M-112.159 37.593c.248 2.024-2.257 3.18-2.257 3.18s.525 2.71 6.423 3.06c3.769.223 5.347-2.968 5.347-2.968s-.915-.536-2.432-1.904c-1.517-1.367-7.08-1.368-7.08-1.368zm30.374 1.369c-1.034-.036-3.683.989-6.443 1.05 0 0 .398 1.296.844 2.681.445 1.385 4.786-.776 5.868-2.837.338-.644.202-.878-.269-.894zm-53.08 3.25c-.461.005-.611.146-.648.5-.203 1.925 3.424 4.204 5.756 3.846 2.331-.357.375-3.608.707-3.608-3.416-.383-5.048-.748-5.816-.739z" style="fill:#f4ddcc;stroke-width:.706425;stroke-linecap:round;stroke-linejoin:bevel" transform="translate(135.521 -14.605)"/><path d="M4.618 83.476c-.105 2.911-.25 5.437-1.56 6.073-.913.443-1.345.916-3.432.026-1.115-.476-2.733 1.725-4.15 3.753-1.418 2.027-.499 2.78 1.625 3.506 2.123.725 7.994 1.323 11.123.507 2.915-.76 3.56-1.56 4.095-3.439.925.154 1.178.228 1.841.307.748 4.322 1.277 5.775 1.504 6.67.567 2.246.348 2.86 2.2 3.138 1.85.279 4.69 1.05 6.307.197 1.385-.732-.564-12.654-2.054-19.72z" style="fill:#ccc;stroke-width:.706425;stroke-linecap:round;stroke-linejoin:bevel" transform="translate(14.352 -42.05)"/><path d="M7.037 68.926c4.78 1.729 3.88 1.577 5.688 1.856 1.81.28 6.518-1.714 6.518-1.714s1.46 3.8-1.58 4.558c-3.042.758-7.793 1.17-9.697-.187-1.904-1.356-.93-4.513-.93-4.513z" style="fill:#ececec;stroke-width:.706425;stroke-linecap:round;stroke-linejoin:bevel" transform="translate(14.352 -42.05)"/><path d="M6.961 68.283c-.287.786-.49.705-.08 1.04.413.333 1.499 1.988 5.93 1.968 4.432-.02 6.681-1.289 6.589-1.696-.093-.407-.42-.95-.42-.95s-1.046 1.57-5.01 1.658c-3.965.089-4.694-.483-5.84-1.05-1.147-.567-1.169-.97-1.169-.97Zm27.976-1.323s-1.28.17-2.185.458c0 0 .56 4.973 1.298 4.953a77.64 77.64 0 0 0 2.984-.175s-.08-1.59-.936-3.68a3.92 3.92 0 0 0-1.16-1.556zm-45.175 2.888s-.752 1.68-.614 4.448c.048.957.18 1.104.182 1.123.002 0 2.038-.254 2.747-.316.709-.062.426-5.22.426-5.22-.912.02-1.835-.02-2.741-.035z" style="fill:#78a2d2;stroke-width:.746123;stroke-linecap:round;stroke-linejoin:bevel" transform="translate(14.352 -42.05)"/><path d="M-100.575 39.586c-1.603-.024-6.762 6.248-6.762 6.248s-1.183-1.176-6.94-5.519c-.986-.743-2.658-.302-3.847.475-3.63 1.298-9.782 1.187-10.724 1.314l-.944.127s-1.035 1.552-1.016 3.426c.018 1.875.279 2.802.279 2.802s3.618.594 7.016-.268a47.025 47.025 0 0 1 5.05-.982l.043.098c.079 2.402.252 8.083.046 9.51-.225 1.559 1.58 2.215 2.899 2.694 1.319.48 11.938 1.315 15.695.228 2.519-.729 3.337-1.503 2.884-4.214-.351-2.097-.286-6.923-.24-8.985 3.221-.45 11.238-1.137 11.238-1.137s.121-.428-.436-2.478c-.641-2.355-1.66-3.224-1.66-3.224s-5.482 1.176-10.361.339a6.14 6.14 0 0 0-2.22-.454z" style="fill:#f9f9f9;stroke-width:.706425;stroke-linecap:round;stroke-linejoin:bevel" transform="translate(135.521 -14.605)"/><path d="M-111.974 34.838c-.252-.028-.546.085-.884.421-1.547 1.536-1.865 1.274-2.962 2.814-1.096 1.54-2.868 3.42.829 5.17 2.388 1.33 5.12 1.792 7.652 2.592-2.775-2.35-7.19-5.354-6.694-6.435.496-1.08 4.954-1.47 4.954-1.47s-1.995-2.992-2.895-3.092zm4.635 10.997c.001-.001 4.86-3.149 6.757-3.85 1.897-.7 2.591-3.78.172-5.082-2.419-1.301-6.63-.02-6.88.624s4.572 1.406 4.483 2.39c-.089.985-.988.642-4.532 5.918z" style="fill:#ececec;stroke-width:.706425;stroke-linecap:round;stroke-linejoin:bevel" transform="translate(135.521 -14.605)"/><path d="M-102.813 42.46a.35.35 0 0 0-.484.099c-.364.551-.411 1.322-.42 1.982-.009.66.055 1.209.055 1.209a.35.35 0 0 0 .387.309.35.35 0 0 0 .308-.387s-.059-.511-.05-1.121c.007-.61.116-1.32.304-1.606a.35.35 0 0 0-.1-.484zm-9.1 1.433a.35.35 0 0 0-.226.439c.096.299.17.925.196 1.666.025.742.01 1.611-.037 2.463a26.364 26.364 0 0 1-.23 2.36c-.102.672-.258 1.211-.327 1.327a.35.35 0 0 0 .121.479.35.35 0 0 0 .48-.121c.212-.355.31-.877.416-1.58.107-.703.188-1.556.237-2.426.049-.87.065-1.756.039-2.525-.026-.77-.086-1.411-.229-1.856a.35.35 0 0 0-.44-.226z" style="color:#000;fill:#ccc;stroke-linecap:round;stroke-linejoin:bevel;-inkscape-stroke:none" transform="translate(135.521 -14.605)"/><path d="M-114.84 36.723c-.655 1.207-1.512 2.9-1.012 3.579 1.009 1.37 3.628 3.037 5.694 4.13s2.821 1.401 2.821 1.401-1.249-1.261-5.156-4.391c-1.307-1.047-.246-3.016 1.092-3.748.608-.333-3.44-.971-3.44-.971zm10.512.436c-.195.003-.36.033-.48.094-.776.39-1.207.798-.121 1.368 1.085.57 2.212.79 2.065 1.275-.147.485-2.427 2.982-3.382 4.29-.952 1.302-1.09 1.645-1.09 1.645.248-.313 1.454-1.307 2.622-2.428 1.251-1.2 5.64-3.865 4.43-4.76-1.022-.754-2.989-1.503-4.044-1.484z" style="fill:#ccc;stroke-width:.706425;stroke-linecap:round;stroke-linejoin:bevel" transform="translate(135.521 -14.605)"/><g transform="translate(-7.322 -63.282)"><path d="M73.685 39.527h135.467v67.733H73.685z" clip-path="url(#a)" style="fill:#f8e5d6;stroke-width:7.26443;stroke-linecap:square;stroke-linejoin:round;paint-order:stroke fill markers" transform="translate(1.486 66.104) scale(.22994)"/><path d="M73.685-28.206h135.467v67.733H73.685z" clip-path="url(#b)" style="fill:#c9ab80;stroke-width:7.26443;stroke-linecap:square;stroke-linejoin:round;paint-order:stroke fill markers" transform="translate(1.486 66.104) scale(.22994)"/><circle cx="88.27" cy="-72.048" r="39.677" clip-path="url(#c)" style="fill:#c9ab80;stroke-width:6.78952;stroke-linecap:square;stroke-linejoin:round;paint-order:stroke fill markers" transform="rotate(45 -79.053 34.846) scale(.22994)"/><circle cx="167.625" cy="-72.048" r="39.677" clip-path="url(#d)" style="fill:#f8e5d6;stroke-width:6.78952;stroke-linecap:square;stroke-linejoin:round;paint-order:stroke fill markers" transform="rotate(45 -79.053 34.846) scale(.22994)"/><path d="M171.89 38.756a16.965 16.965 0 0 0-14.144 6.992 2.117 2.117 0 0 0 .473 2.957 2.117 2.117 0 0 0 2.955-.473 12.725 12.725 0 0 1 10.613-5.244 12.714 12.714 0 0 1 10.346 5.748 2.117 2.117 0 0 0 2.93.616 2.117 2.117 0 0 0 .615-2.928 16.957 16.957 0 0 0-13.787-7.668zm-36.279-2.949a16.978 16.978 0 0 0-11.173 4.59 2.117 2.117 0 0 0-.094 2.992 2.117 2.117 0 0 0 2.992.093 12.75 12.75 0 0 1 11.488-3.144 12.67 12.67 0 0 1 9.051 7.693 2.117 2.117 0 0 0 2.748 1.19 2.117 2.117 0 0 0 1.188-2.748 16.917 16.917 0 0 0-12.07-10.268 16.998 16.998 0 0 0-4.13-.398z" style="color:#000;fill:#78a2d2;stroke-linecap:round;stroke-linejoin:round;-inkscape-stroke:none;paint-order:stroke fill markers" transform="translate(1.486 66.104) scale(.22994)"/><path d="M129.096 49.88a2.117 2.117 0 0 0-2.71 1.274 2.117 2.117 0 0 0 1.274 2.71l11.682 4.204-11.584 5.66a2.117 2.117 0 0 0-.97 2.83 2.117 2.117 0 0 0 2.83.973l16.08-7.857a2.117 2.117 0 0 0-.214-3.893zm50.429 1.735-16.668 5.057a2.117 2.117 0 0 0-.412 3.877l15.659 8.666a2.117 2.117 0 0 0 2.876-.826 2.117 2.117 0 0 0-.826-2.877l-11.279-6.242 11.879-3.604a2.117 2.117 0 0 0 1.41-2.64 2.117 2.117 0 0 0-2.639-1.41z" style="color:#000;fill:#78a2d2;stroke-linecap:round;stroke-linejoin:round;-inkscape-stroke:none" transform="translate(1.486 66.104) scale(.22994)"/><path d="M143.31 78.073c-3.662 3.393-2.03 25.136 6.81 26.34 8.842 1.204 15.08-18.378 12.73-22.413-2.35-4.035-15.876-7.32-19.54-3.927z" clip-path="url(#e)" style="fill:#d47d7d;stroke-width:.529166px" transform="translate(1.486 66.104) scale(.22994)"/><path d="M31.452 63.282s-1.156 1.233-3.28 2.306c-2.125 1.074-4.64 1.35-4.64 1.35s.384.476 2.11.537c-1.965 2.653-3.322 3.008-3.322 3.008s1.05.207 1.998.174c-.264 1.216-1.666 4.21-1.666 4.21s.686-.03 1.45-.566c.171 2.028.145 4.886.145 4.886s.548-.689.997-1.412c.477 1.45 1.148 2.156 1.148 2.156s.439-.716.793-1.561c.679.79 1.676 1.63 1.676 1.63s.626-1.988.015-3.688c0 0-.646.069-1.255.248a1.184 1.184 0 0 0-.094-.424c-.27-.594-1.021-.735-1.666-.736a5.415 5.415 0 0 0-1.055.107c.009.122.02.24.033.358-.254.002-.648-1.336-.717-1.578.226-.161.458-.365.682-.628.912-1.073-.219-2.748-.4-3.004.45-.023.869-.104 1.13-.292.756-.543.444-2.691.384-3.068.367.01.766.014 1.243-.001 2.745-.089.89-1.428.746-1.53.156.024 2.8.43 3.092-.147.082-.16.152-.408.212-.68.783.452 3.287 1.813 4.858 1.558.648-.105 1.174-.41 1.587-.76-.105.467-.241 1.762 1.47 1.891a3.84 3.84 0 0 0 1.477-.175c.272.654 1.771 2.537 1.771 2.537.223.135.435.248.637.344-.16.748-.27 1.736-.27 1.736 1.543 1.946 3.234 1.66 3.234 1.66s-1.374-1.701-2.088-3.068c1.186.319 1.836-.036 1.836-.036s-3.6-2.688-4.66-3.351c.893-.413 1.39-1.028 1.39-1.028s-2.604-.332-4.62-.67c.653-.623.97-1.32.97-1.32s-5.18.503-7.552.484c.133-.69.201-1.457.201-1.457z" style="fill:#c9ab80;stroke-width:.614457;stroke-linecap:round;stroke-linejoin:bevel"/></g></svg>