<svg xmlns="http://www.w3.org/2000/svg" width="1920" height="640" viewBox="0 0 508 169.333"><g transform="translate(0 -127.667)"><path fill="#8fa4d5" d="M0 127.667h508V297H0z"/><path d="M0 155.917v140.422a755.601 74.035 0 0020.418.661h432.681A755.601 74.035 0 00508 295.213V157.079a755.601 74.035 0 00-270.752-5.004A755.601 74.035 0 000 155.917z" style="isolation:auto;mix-blend-mode:normal;solid-color:#000;solid-opacity:1" color="#000" overflow="visible" fill="#69b1ff"/><path d="M0 188.121V297h508V184.652a755.601 74.035 0 00-204.916-2.847A755.601 74.035 0 000 188.121z" style="isolation:auto;mix-blend-mode:normal;solid-color:#000;solid-opacity:1" color="#000" overflow="visible" fill="#c1cfdf"/><circle r="25.135" cy="161.577" cx="199.386" style="isolation:auto;mix-blend-mode:normal;solid-color:#000;solid-opacity:1" color="#000" overflow="visible" fill="#fff3b8"/><g color="#000"><path style="isolation:auto;mix-blend-mode:normal;solid-color:#000;solid-opacity:1" d="M67.145 126.93a59.475 14.941 0 00-50.978 7.28 59.475 14.941 0 00-44.81-5.145 59.475 14.941 0 00-59.474 14.94A59.475 14.941 0 00-43.13 158.48a59.475 14.941 0 00-.538 1.891 59.475 14.941 0 0059.475 14.942 59.475 14.941 0 0049.862-6.823 59.475 14.941 0 0040.29 3.976 59.475 14.941 0 0059.476-14.94 59.475 14.941 0 00-.128-.904 59.475 14.941 0 0050.213-14.75 59.475 14.941 0 00-59.475-14.94 59.475 14.941 0 00-44.462 5.038 59.475 14.941 0 00-44.438-5.039z" overflow="visible" fill="#d6dae6"/><path style="isolation:auto;mix-blend-mode:normal;solid-color:#000;solid-opacity:1" d="M68.748 131.485a57.461 14.435 0 00-49.252 7.033 57.461 14.435 0 00-43.291-4.97 57.461 14.435 0 00-57.461 14.434 57.461 14.435 0 0043.464 13.983 57.461 14.435 0 00-.52 1.827 57.461 14.435 0 0057.46 14.436 57.461 14.435 0 0048.174-6.591 57.461 14.435 0 0038.926 3.84 57.461 14.435 0 0057.462-14.434 57.461 14.435 0 00-.124-.873 57.461 14.435 0 0048.512-14.25 57.461 14.435 0 00-57.46-14.435 57.461 14.435 0 00-42.957 4.868 57.461 14.435 0 00-42.933-4.868z" overflow="visible" fill="#aaaebc"/></g><g color="#000"><path style="isolation:auto;mix-blend-mode:normal;solid-color:#000;solid-opacity:1" d="M86.395 159.622a48.966 12.154 0 00-41.97 5.921 48.966 12.154 0 00-36.892-4.184 48.966 12.154 0 00-48.966 12.153 48.966 12.154 0 0037.039 11.773 48.966 12.154 0 00-.443 1.539 48.966 12.154 0 0048.966 12.154 48.966 12.154 0 0041.05-5.55 48.966 12.154 0 0033.172 3.235 48.966 12.154 0 0048.967-12.154 48.966 12.154 0 00-.105-.735 48.966 12.154 0 0041.34-11.998 48.966 12.154 0 00-48.966-12.154 48.966 12.154 0 00-36.606 4.099 48.966 12.154 0 00-36.586-4.1z" overflow="visible" fill="#d6dae6"/><path style="isolation:auto;mix-blend-mode:normal;solid-color:#000;solid-opacity:1" d="M87.715 163.327a47.308 11.742 0 00-40.549 5.72 47.308 11.742 0 00-35.642-4.042 47.308 11.742 0 00-47.308 11.742A47.308 11.742 0 000 188.12a47.308 11.742 0 00-.428 1.487A47.308 11.742 0 0046.88 201.35a47.308 11.742 0 0039.66-5.362 47.308 11.742 0 0032.049 3.125 47.308 11.742 0 0047.308-11.742 47.308 11.742 0 00-.101-.711 47.308 11.742 0 0039.94-11.591 47.308 11.742 0 00-47.308-11.743 47.308 11.742 0 00-35.366 3.96 47.308 11.742 0 00-35.347-3.96z" overflow="visible" fill="#aaaebc"/></g><g color="#000"><path style="isolation:auto;mix-blend-mode:normal;solid-color:#000;solid-opacity:1" d="M469.51 157.015a51.401 16.133 0 00-44.057 7.86 51.401 16.133 0 00-38.727-5.554 51.401 16.133 0 00-51.4 16.132 51.401 16.133 0 0038.88 15.627 51.401 16.133 0 00-.465 2.042 51.401 16.133 0 0051.4 16.134 51.401 16.133 0 0043.093-7.367 51.401 16.133 0 0034.821 4.293 51.401 16.133 0 0051.402-16.132 51.401 16.133 0 00-.11-.976 51.401 16.133 0 0043.395-15.925 51.401 16.133 0 00-51.401-16.134 51.401 16.133 0 00-38.426 5.441 51.401 16.133 0 00-38.405-5.44z" overflow="visible" fill="#d6dae6"/><path style="isolation:auto;mix-blend-mode:normal;solid-color:#000;solid-opacity:1" d="M470.895 161.933a49.66 15.586 0 00-42.565 7.594 49.66 15.586 0 00-37.415-5.366 49.66 15.586 0 00-49.66 15.586 49.66 15.586 0 0037.563 15.097 49.66 15.586 0 00-.449 1.974 49.66 15.586 0 0049.66 15.587 49.66 15.586 0 0041.634-7.117 49.66 15.586 0 0033.641 4.147 49.66 15.586 0 0049.662-15.586 49.66 15.586 0 00-.107-.943 49.66 15.586 0 0041.926-15.386 49.66 15.586 0 00-49.66-15.587A49.66 15.586 0 00508 167.19a49.66 15.586 0 00-37.105-5.257z" overflow="visible" fill="#aaaebc"/></g><g color="#000"><path style="isolation:auto;mix-blend-mode:normal;solid-color:#000;solid-opacity:1" d="M277.883 169.129a34.14 10.977 0 00-29.263 5.347 34.14 10.977 0 00-25.722-3.779 34.14 10.977 0 00-34.14 10.977 34.14 10.977 0 0025.824 10.632 34.14 10.977 0 00-.309 1.39 34.14 10.977 0 0034.14 10.977 34.14 10.977 0 0028.623-5.012 34.14 10.977 0 0023.128 2.92 34.14 10.977 0 0034.14-10.976 34.14 10.977 0 00-.073-.664 34.14 10.977 0 0028.824-10.835 34.14 10.977 0 00-34.14-10.977 34.14 10.977 0 00-25.523 3.701 34.14 10.977 0 00-25.509-3.701z" overflow="visible" fill="#d6dae6"/><path style="isolation:auto;mix-blend-mode:normal;solid-color:#000;solid-opacity:1" d="M278.803 172.475a32.985 10.605 0 00-28.271 5.167 32.985 10.605 0 00-24.851-3.652 32.985 10.605 0 00-32.985 10.605 32.985 10.605 0 0024.95 10.273 32.985 10.605 0 00-.298 1.342 32.985 10.605 0 0032.984 10.606 32.985 10.605 0 0027.653-4.843 32.985 10.605 0 0022.345 2.822 32.985 10.605 0 0032.984-10.605 32.985 10.605 0 00-.07-.641 32.985 10.605 0 0027.847-10.469 32.985 10.605 0 00-32.985-10.605 32.985 10.605 0 00-24.658 3.576 32.985 10.605 0 00-24.645-3.576z" overflow="visible" fill="#aaaebc"/></g><g color="#000"><path style="isolation:auto;mix-blend-mode:normal;solid-color:#000;solid-opacity:1" d="M332.683 121.025a71.973 15.79 0 00-61.69 7.693 71.973 15.79 0 00-54.224-5.436 71.973 15.79 0 00-71.973 15.79 71.973 15.79 0 0054.44 15.296 71.973 15.79 0 00-.65 1.999 71.973 15.79 0 0071.972 15.791 71.973 15.79 0 0060.34-7.21 71.973 15.79 0 0048.756 4.202 71.973 15.79 0 0071.974-15.79 71.973 15.79 0 00-.155-.956 71.973 15.79 0 0060.764-15.588 71.973 15.79 0 00-71.973-15.79 71.973 15.79 0 00-53.805 5.325 71.973 15.79 0 00-53.776-5.326z" overflow="visible" fill="#d6dae6"/><path style="isolation:auto;mix-blend-mode:normal;solid-color:#000;solid-opacity:1" d="M334.623 125.839a69.536 15.256 0 00-59.6 7.433 69.536 15.256 0 00-52.39-5.253 69.536 15.256 0 00-69.534 15.256 69.536 15.256 0 0052.597 14.778 69.536 15.256 0 00-.63 1.931 69.536 15.256 0 0069.536 15.256 69.536 15.256 0 0058.296-6.966 69.536 15.256 0 0047.105 4.06 69.536 15.256 0 0069.537-15.256 69.536 15.256 0 00-.15-.923 69.536 15.256 0 0058.706-15.06 69.536 15.256 0 00-69.535-15.256 69.536 15.256 0 00-51.983 5.145 69.536 15.256 0 00-51.955-5.145z" overflow="visible" fill="#aaaebc"/></g><path d="M508.187 240.856a650.052 141.102 2.708 00-6.528-1.167 650.052 141.102 2.708 00-58.417-8.787 650.052 141.102 2.708 00-60.951-7.601 650.052 141.102 2.708 00-62.874-6.341 650.052 141.102 2.708 00-64.17-5.016 650.052 141.102 2.708 00-64.825-3.64 650.052 141.102 2.708 00-45.936-1.727 650.052 141.102 2.708 00-64.444-1.217 650.052 141.102 2.708 00-63.348.223 650.052 141.102 2.708 00-16.507.445V297h508z" fill="#00525f"/><path d="M468.59 234.743a541.7 84.543 0 00-14.294-1.078 541.7 84.543 0 00-50.865-2.897 541.7 84.543 0 00-52.464-2.091 541.7 84.543 0 00-53.54-1.263 541.7 84.543 0 00-54.08-.422 541.7 84.543 0 00-38.317.211 541.7 84.543 0 00-53.753 1.019 541.7 84.543 0 00-52.833 1.85 541.7 84.543 0 00-51.385 2.665A541.7 84.543 0 000 236.024V297h508v-56.144a650.052 141.102 2.708 00-6.528-1.167 650.052 141.102 2.708 00-32.882-4.946z" fill="#fff4cb"/><path d="M0 228.947a1046.398 100.503 2.776 01193.555 8.702A1046.398 100.503 2.776 01508 259.617V297H0z" fill="#d9f7ff"/><path d="M445.453 233.266c9.578-1.992-1.129 3.429 4.981 11.152 7.762 9.581 15.183 13.774 22.262 22.033 12.48 17.082 21.475 35.372 14.478 55.33-4.925 15.295-13.68 29.664-24.567 42.688l-131.613-17.464c27.944-15.154 55.89-30.684 80.23-49.654 6.894-5.796 11.356-10.773 14.76-20.987 1.894-11.512 1.095-23.892 8.037-34.36 3.158-3.32 6.95-6.666 11.432-8.738z" fill="#34887d" fill-rule="evenodd"/></g><path d="M74.235 84.41c3.856.652 5.205-.117.835 4.332-4.37 4.448-19.655 16.098-20.227 18.27-.57 2.172-4.383-3.027-2.593-5.58 1.79-2.555 21.985-17.022 21.985-17.022z" fill="#fb3a50" fill-rule="evenodd"/><g transform="matrix(.36695 0 0 .36695 -77.21 -72.61)" color="#000" fill="#f6f6f6"><ellipse ry="92.39" rx="110.724" cy="502.38" cx="478.741" style="isolation:auto;mix-blend-mode:normal;solid-color:#000;solid-opacity:1" overflow="visible"/><ellipse ry="75.48" rx="90.459" cy="361.49" cx="477.891" style="isolation:auto;mix-blend-mode:normal;solid-color:#000;solid-opacity:1" overflow="visible"/></g><path d="M35.736 98.958s2.33-1.725 35.564-2.509l-.202-2.375s-11.844.545-20.833.694l-3.944.117-1.93-.306c-3.357.022-2.996.188-4.768.756-3.54 1.946-3.887 3.623-3.887 3.623z" fill="#ba6808" fill-rule="evenodd"/><ellipse style="isolation:auto;mix-blend-mode:normal;solid-color:#000;solid-opacity:1" cx="93.573" cy="56.147" rx="3.864" ry="3.739" color="#000" overflow="visible" fill="#4e4e4e"/><ellipse style="isolation:auto;mix-blend-mode:normal;solid-color:#000;solid-opacity:1" cx="113.73" cy="54.386" rx="4.765" ry="4.612" color="#000" overflow="visible" fill="#4e4e4e"/><ellipse style="isolation:auto;mix-blend-mode:normal;solid-color:#000;solid-opacity:1" ry="6.45" rx="9.089" cy="31.698" cx="97.4" color="#000" overflow="visible" fill="#f7b55c"/><path style="isolation:auto;mix-blend-mode:normal;solid-color:#000;solid-opacity:1" d="M101.858 25.883l-2.601.255-.228 1.156-1.807-.853-2.415.492.794-1.107-2.187-.663 2.6-.255.229-1.156 1.807.853 2.414-.492-.793 1.107z" color="#000" overflow="visible" fill="#0ad845"/><path style="isolation:auto;mix-blend-mode:normal;solid-color:#000;solid-opacity:1" d="M94.79 37.806a.11.125 0 01-.11.124.11.125 0 01-.109-.124.11.125 0 01.109-.125.11.125 0 01.11.124h-.11z" color="#000" overflow="visible" fill="#7a4d0e"/><path style="line-height:normal;font-variant-ligatures:normal;font-variant-position:normal;font-variant-caps:normal;font-variant-numeric:normal;font-variant-alternates:normal;font-feature-settings:normal;text-indent:0;text-align:start;text-decoration-line:none;text-decoration-style:solid;text-decoration-color:#000;text-transform:none;text-orientation:mixed;white-space:normal;shape-padding:0;isolation:auto;mix-blend-mode:normal;solid-color:#000;solid-opacity:1" d="M112.427 71.793c-1.17.146-1.249.856-2.45 1.273-2.141.718-6.87 1.29-16.887.535l-.23 2.16c10.05.758 14.8.212 17.12-.566 1.16-.39 1.716-.77 2.114-1.393.2-.312.358-.775.396-1.196.037-.42-.063-.813-.063-.813z" color="#000" font-weight="400" font-family="sans-serif" overflow="visible" fill="#616161" fill-rule="evenodd"/><path d="M154.64 57.621s-11.817 11.052-31.508 34.23l1.81 1.99s9.15-10.061 16.276-17.456l10.058 2.313s-1.759-3.289-7.875-4.56c2.685-2.731 4.865-4.83 5.687-5.312 3.042-1.788 5.552-11.205 5.552-11.205z" fill="#ba6808" fill-rule="evenodd"/><path d="M153.476 68.978l-9.53-5.45s6.051-5.065 4.867-9.828c-1.183-4.762 4.097-.584 3.18 1.115-.916 1.698 2.691-7.398 8.422-4.805 5.73 2.594 5.914 7.391 2.081 10.859-3.832 3.467-9.02 8.11-9.02 8.11zM75.891 80.885c24.406 2.456 44.82-5.396 46.54-1.56 1.719 3.837 7.937 4.896.528 7.41-7.408 2.513-25.723 3.365-35.91 1.645-10.186-1.72-16.007-.529-14.816-2.91 1.19-2.381 3.658-4.585 3.658-4.585z" fill="#fb3a50" fill-rule="evenodd"/><path d="M74.235 84.41c4.437-.369 5.679-1.664 2.27 4.82-3.41 6.485-16.554 24.593-16.502 27.3.05 2.708-5.76-2.253-4.592-5.765 1.168-3.512 18.824-26.355 18.824-26.355zM45.51 100.074l-3.903-7.65s-5.944 3.87-10.464 2.445c-4.52-1.423-1.214 2.95.606 2.472 1.82-.478-7.726 1.123-6.055 5.644 1.67 4.52 6.381 5.212 10.402 2.792 4.021-2.42 9.414-5.703 9.414-5.703z" fill="#fb3a50" fill-rule="evenodd"/></svg>