<svg xmlns="http://www.w3.org/2000/svg" xmlns:xlink="http://www.w3.org/1999/xlink" width="1920" height="640" viewBox="0 0 508 169.333"><g transform="translate(0 -127.667)"><g id="a" display="inline" color="#000" fill="#ececec" stroke-width="18.494" stroke-linecap="round" stroke-linejoin="round"><path d="M1147.607-85.54A19.607 19.607 0 011128-65.933a19.607 19.607 0 01-19.607-19.607A19.607 19.607 0 011128-105.146a19.607 19.607 0 0119.607 19.606zM357.607 594.46A19.607 19.607 0 01338 614.067a19.607 19.607 0 01-19.607-19.607A19.607 19.607 0 01338 574.854a19.607 19.607 0 0119.607 19.606zM1535.607 602.46A19.607 19.607 0 011516 622.067a19.607 19.607 0 01-19.607-19.607A19.607 19.607 0 011516 582.854a19.607 19.607 0 0119.607 19.606zM1338.382 617.325a19.607 19.607 0 01-19.606 19.606 19.607 19.607 0 01-19.607-19.606 19.607 19.607 0 0119.607-19.607 19.607 19.607 0 0119.606 19.607zM395.548 553.624a19.607 19.607 0 0019.607 19.606 19.607 19.607 0 0019.607-19.606 19.607 19.607 0 00-19.607-19.607 19.607 19.607 0 00-19.607 19.607zM1144.586 582.763a19.607 19.607 0 0019.607 19.607 19.607 19.607 0 0019.606-19.607 19.607 19.607 0 00-19.606-19.607 19.607 19.607 0 00-19.607 19.607zM72.936 602.676a19.607 19.607 0 01-19.607 19.607 19.607 19.607 0 01-19.606-19.607 19.607 19.607 0 0119.606-19.606 19.607 19.607 0 0119.607 19.606zM1698.097 593.094a19.607 19.607 0 01-19.606 19.606 19.607 19.607 0 01-19.607-19.606 19.607 19.607 0 0119.607-19.607 19.607 19.607 0 0119.606 19.607zM1619.94 476.493a19.607 19.607 0 01-19.606 19.607 19.607 19.607 0 01-19.607-19.607 19.607 19.607 0 0119.607-19.606 19.607 19.607 0 0119.607 19.606zM1658.05 305.72a19.607 19.607 0 01-19.606 19.606 19.607 19.607 0 01-19.606-19.607 19.607 19.607 0 0119.606-19.607 19.607 19.607 0 0119.607 19.607zM1904.4 157.376a19.607 19.607 0 0019.606 19.607 19.607 19.607 0 0019.607-19.607 19.607 19.607 0 00-19.607-19.607 19.607 19.607 0 00-19.606 19.607zM1533.03 485.051a19.607 19.607 0 01-19.608 19.607 19.607 19.607 0 01-19.606-19.607 19.607 19.607 0 0119.606-19.606 19.607 19.607 0 0119.607 19.606zM1710.924 477.872a19.607 19.607 0 01-19.607 19.607 19.607 19.607 0 01-19.606-19.607 19.607 19.607 0 0119.606-19.606 19.607 19.607 0 0119.607 19.606zM1404.001 192.995a19.607 19.607 0 0019.607 19.607 19.607 19.607 0 0019.607-19.607 19.607 19.607 0 00-19.607-19.606A19.607 19.607 0 001404 192.995zM1650.37-36.784a19.607 19.607 0 0019.607 19.607 19.607 19.607 0 0019.607-19.607 19.607 19.607 0 00-19.607-19.607 19.607 19.607 0 00-19.607 19.607zM1484.793 291.664a19.607 19.607 0 0019.607 19.607 19.607 19.607 0 0019.606-19.607 19.607 19.607 0 00-19.606-19.607 19.607 19.607 0 00-19.607 19.607zM1680.687 35.024a19.607 19.607 0 0019.607 19.606 19.607 19.607 0 0019.606-19.606 19.607 19.607 0 00-19.606-19.607 19.607 19.607 0 00-19.607 19.607zM1608.49 673.819a19.607 19.607 0 01-19.608 19.607 19.607 19.607 0 01-19.606-19.607 19.607 19.607 0 0119.606-19.607 19.607 19.607 0 0119.607 19.607zM1348.378 341.322a19.607 19.607 0 0019.606 19.607 19.607 19.607 0 0019.607-19.607 19.607 19.607 0 00-19.607-19.607 19.607 19.607 0 00-19.606 19.607zM1797.484 302.575a19.607 19.607 0 0019.607 19.606 19.607 19.607 0 0019.606-19.606 19.607 19.607 0 00-19.606-19.607 19.607 19.607 0 00-19.607 19.607zM1944.697-40.714a19.607 19.607 0 01-19.607 19.606 19.607 19.607 0 01-19.606-19.606 19.607 19.607 0 0119.606-19.607 19.607 19.607 0 0119.607 19.607zM1324.586 82.794a19.607 19.607 0 0019.607 19.606 19.607 19.607 0 0019.606-19.606 19.607 19.607 0 00-19.606-19.607 19.607 19.607 0 00-19.607 19.607zM1703.012 206.926a19.607 19.607 0 01-19.606 19.606 19.607 19.607 0 01-19.607-19.606 19.607 19.607 0 0119.607-19.607 19.607 19.607 0 0119.606 19.607zM1802.566 41.821a19.607 19.607 0 01-19.607 19.607 19.607 19.607 0 01-19.606-19.607 19.607 19.607 0 0119.606-19.606 19.607 19.607 0 0119.607 19.606zM1798.415 615.787a19.607 19.607 0 0019.606 19.606 19.607 19.607 0 0019.607-19.606 19.607 19.607 0 00-19.607-19.607 19.607 19.607 0 00-19.606 19.607zM1548.048 368.302a19.607 19.607 0 0019.607 19.607 19.607 19.607 0 0019.606-19.607 19.607 19.607 0 00-19.606-19.606 19.607 19.607 0 00-19.607 19.606zM1326.73 391.026a19.607 19.607 0 01-19.608 19.607 19.607 19.607 0 01-19.606-19.607 19.607 19.607 0 0119.606-19.606 19.607 19.607 0 0119.607 19.606zM1335.888 444.142a19.607 19.607 0 0019.607 19.606 19.607 19.607 0 0019.606-19.606 19.607 19.607 0 00-19.606-19.607 19.607 19.607 0 00-19.607 19.607zM1201.687 137.282a19.607 19.607 0 01-19.607 19.607 19.607 19.607 0 01-19.606-19.607 19.607 19.607 0 0119.606-19.606 19.607 19.607 0 0119.607 19.606zM1255.562 274.643a19.607 19.607 0 01-19.606 19.607 19.607 19.607 0 01-19.607-19.607 19.607 19.607 0 0119.607-19.606 19.607 19.607 0 0119.606 19.606zM1355.854 161.485a19.607 19.607 0 01-19.606 19.607 19.607 19.607 0 01-19.607-19.607 19.607 19.607 0 0119.607-19.606 19.607 19.607 0 0119.606 19.606zM1522.892-8.022a19.607 19.607 0 0019.607 19.607 19.607 19.607 0 0019.606-19.607 19.607 19.607 0 00-19.606-19.606 19.607 19.607 0 00-19.607 19.606zM1487.593 23.214a19.607 19.607 0 01-19.606 19.607 19.607 19.607 0 01-19.607-19.607 19.607 19.607 0 0119.607-19.607 19.607 19.607 0 0119.606 19.607zM1362.91.347a19.607 19.607 0 0019.607 19.606A19.607 19.607 0 001402.123.347a19.607 19.607 0 00-19.606-19.607A19.607 19.607 0 001362.91.347zM1254.19 470.13a19.607 19.607 0 01-19.606 19.607 19.607 19.607 0 01-19.607-19.607 19.607 19.607 0 0119.607-19.607 19.607 19.607 0 0119.607 19.607zM1407.822 516.076a19.607 19.607 0 0019.606 19.606 19.607 19.607 0 0019.607-19.606 19.607 19.607 0 00-19.607-19.607 19.607 19.607 0 00-19.606 19.607zM1142.08 276.383a19.607 19.607 0 01-19.606 19.607 19.607 19.607 0 01-19.606-19.607 19.607 19.607 0 0119.606-19.606 19.607 19.607 0 0119.607 19.606zM1138.467 8.554a19.607 19.607 0 01-19.607 19.607 19.607 19.607 0 01-19.607-19.607 19.607 19.607 0 0119.607-19.607 19.607 19.607 0 0119.607 19.607zM1267.757 38.74a19.607 19.607 0 0019.606 19.607 19.607 19.607 0 0019.607-19.607 19.607 19.607 0 00-19.607-19.606 19.607 19.607 0 00-19.606 19.606zM1343.776 248.87a19.607 19.607 0 0019.607 19.607 19.607 19.607 0 0019.607-19.606 19.607 19.607 0 00-19.607-19.607 19.607 19.607 0 00-19.607 19.607zM1491.862-107.716a19.607 19.607 0 01-19.607 19.607 19.607 19.607 0 01-19.606-19.607 19.607 19.607 0 0119.607-19.606 19.607 19.607 0 0119.606 19.606zM1557.616 133.099a19.607 19.607 0 01-19.606 19.606 19.607 19.607 0 01-19.607-19.606 19.607 19.607 0 0119.607-19.607 19.607 19.607 0 0119.606 19.607zM877.79 612.722a19.607 19.607 0 0019.607 19.606 19.607 19.607 0 0019.606-19.606 19.607 19.607 0 00-19.606-19.607 19.607 19.607 0 00-19.607 19.607zM1068.353 548.109a19.607 19.607 0 01-19.607 19.606 19.607 19.607 0 01-19.606-19.606 19.607 19.607 0 0119.606-19.607 19.607 19.607 0 0119.607 19.607zM1077.704 383.118a19.607 19.607 0 0019.606 19.606 19.607 19.607 0 0019.607-19.606 19.607 19.607 0 00-19.607-19.607 19.607 19.607 0 00-19.606 19.607zM1081.612 240.046a19.607 19.607 0 01-19.607 19.606 19.607 19.607 0 01-19.607-19.606 19.607 19.607 0 0119.607-19.607 19.607 19.607 0 0119.607 19.607zM956.147 342.894a19.607 19.607 0 0019.607 19.607 19.607 19.607 0 0019.606-19.607 19.607 19.607 0 00-19.606-19.606 19.607 19.607 0 00-19.607 19.606zM1894.952 690.393A19.607 19.607 0 011875.345 710a19.607 19.607 0 01-19.607-19.607 19.607 19.607 0 0119.607-19.606 19.607 19.607 0 0119.607 19.606zM688.557 524.792a19.607 19.607 0 0019.607 19.606 19.607 19.607 0 0019.606-19.606 19.607 19.607 0 00-19.606-19.607 19.607 19.607 0 00-19.607 19.607zM1243.685-17.97a19.607 19.607 0 01-19.607 19.606 19.607 19.607 0 01-19.606-19.607 19.607 19.607 0 0119.606-19.606 19.607 19.607 0 0119.607 19.606zM898.672-66.417a19.607 19.607 0 01-19.607 19.607 19.607 19.607 0 01-19.606-19.607 19.607 19.607 0 0119.606-19.606 19.607 19.607 0 0119.607 19.606zM1318.213-89.078a19.607 19.607 0 0019.606 19.607 19.607 19.607 0 0019.607-19.607 19.607 19.607 0 00-19.607-19.606 19.607 19.607 0 00-19.606 19.606zM979.85 486.305a19.607 19.607 0 01-19.606 19.607 19.607 19.607 0 01-19.607-19.607 19.607 19.607 0 0119.607-19.606 19.607 19.607 0 0119.607 19.606zM942.909 206.188a19.607 19.607 0 01-19.607 19.607 19.607 19.607 0 01-19.606-19.607 19.607 19.607 0 0119.606-19.606 19.607 19.607 0 0119.607 19.606zM844.154 417.576a19.607 19.607 0 0019.607 19.607 19.607 19.607 0 0019.606-19.607 19.607 19.607 0 00-19.606-19.606 19.607 19.607 0 00-19.607 19.606zM852.109 290.904a19.607 19.607 0 01-19.607 19.607 19.607 19.607 0 01-19.606-19.607 19.607 19.607 0 0119.606-19.606 19.607 19.607 0 0119.607 19.606zM1168.716 56.416a19.607 19.607 0 0019.607 19.607 19.607 19.607 0 0019.606-19.607 19.607 19.607 0 00-19.606-19.606 19.607 19.607 0 00-19.607 19.606zM1850.938 459.631a19.607 19.607 0 01-19.607 19.607 19.607 19.607 0 01-19.606-19.607 19.607 19.607 0 0119.606-19.606 19.607 19.607 0 0119.607 19.606zM916.096 49.728a19.607 19.607 0 0019.607 19.606 19.607 19.607 0 0019.606-19.606 19.607 19.607 0 00-19.606-19.607 19.607 19.607 0 00-19.607 19.607zM1029.138 18.823a19.607 19.607 0 0019.607 19.606 19.607 19.607 0 0019.607-19.606 19.607 19.607 0 00-19.607-19.607 19.607 19.607 0 00-19.607 19.607zM649.97 613.882a19.607 19.607 0 01-19.607 19.606 19.607 19.607 0 01-19.607-19.606 19.607 19.607 0 0119.607-19.607 19.607 19.607 0 0119.607 19.607zM777.304 586.067a19.607 19.607 0 0019.606 19.606 19.607 19.607 0 0019.607-19.606 19.607 19.607 0 00-19.607-19.607 19.607 19.607 0 00-19.606 19.607zM1096.128 164.03a19.607 19.607 0 01-19.607 19.606 19.607 19.607 0 01-19.606-19.607 19.607 19.607 0 0119.606-19.606 19.607 19.607 0 0119.607 19.606zM801.043 134.367a19.607 19.607 0 0019.606 19.607 19.607 19.607 0 0019.607-19.607 19.607 19.607 0 00-19.607-19.606 19.607 19.607 0 00-19.606 19.606zM986.228-72.88a19.607 19.607 0 0019.607 19.606 19.607 19.607 0 0019.606-19.607 19.607 19.607 0 00-19.606-19.606 19.607 19.607 0 00-19.607 19.606zM597.088 295.633a19.607 19.607 0 01-19.607 19.607 19.607 19.607 0 01-19.606-19.607 19.607 19.607 0 0119.606-19.607 19.607 19.607 0 0119.607 19.607zM930.304 119.703a19.607 19.607 0 0019.606 19.607 19.607 19.607 0 0019.607-19.607 19.607 19.607 0 00-19.607-19.606 19.607 19.607 0 00-19.606 19.606zM841.334 26.202a19.607 19.607 0 01-19.606 19.607 19.607 19.607 0 01-19.607-19.607 19.607 19.607 0 0119.607-19.607 19.607 19.607 0 0119.606 19.607zM748.618 474.294a19.607 19.607 0 01-19.606 19.607 19.607 19.607 0 01-19.607-19.607 19.607 19.607 0 0119.607-19.606 19.607 19.607 0 0119.606 19.606zM608.645 445.576a19.607 19.607 0 0019.607 19.606 19.607 19.607 0 0019.606-19.606 19.607 19.607 0 00-19.606-19.607 19.607 19.607 0 00-19.607 19.607zM665.229 157.214a19.607 19.607 0 01-19.607 19.607 19.607 19.607 0 01-19.606-19.607 19.607 19.607 0 0119.606-19.606 19.607 19.607 0 0119.607 19.606zM668.395 408.775A19.607 19.607 0 00688 428.382a19.607 19.607 0 0019.607-19.607 19.607 19.607 0 00-19.607-19.607 19.607 19.607 0 00-19.606 19.607zM248.079 3.758a19.607 19.607 0 01-19.607 19.607 19.607 19.607 0 01-19.607-19.607 19.607 19.607 0 0119.607-19.606 19.607 19.607 0 0119.607 19.606zM746.534 241.472a19.607 19.607 0 0019.607 19.607 19.607 19.607 0 0019.606-19.607 19.607 19.607 0 00-19.606-19.607 19.607 19.607 0 00-19.607 19.607zM659.152-42.716a19.607 19.607 0 01-19.607 19.607 19.607 19.607 0 01-19.606-19.607 19.607 19.607 0 0119.606-19.606 19.607 19.607 0 0119.607 19.606zM696.462 118.178a19.607 19.607 0 0019.607 19.607 19.607 19.607 0 0019.606-19.607 19.607 19.607 0 00-19.606-19.606 19.607 19.607 0 00-19.607 19.606zM688.182 33.546a19.607 19.607 0 01-19.607 19.607 19.607 19.607 0 01-19.606-19.607 19.607 19.607 0 0119.606-19.606 19.607 19.607 0 0119.607 19.606zM577.702-24.666a19.607 19.607 0 01-19.607 19.607 19.607 19.607 0 01-19.607-19.607 19.607 19.607 0 0119.607-19.607 19.607 19.607 0 0119.607 19.607zM301.005 318.306a19.607 19.607 0 0019.606 19.606 19.607 19.607 0 0019.607-19.606 19.607 19.607 0 00-19.607-19.607 19.607 19.607 0 00-19.606 19.607zM497.109 290.09a19.607 19.607 0 01-19.607 19.607 19.607 19.607 0 01-19.607-19.606 19.607 19.607 0 0119.607-19.607 19.607 19.607 0 0119.607 19.607zM635.559 343.617a19.607 19.607 0 0019.606 19.606 19.607 19.607 0 0019.607-19.606 19.607 19.607 0 00-19.607-19.607 19.607 19.607 0 00-19.606 19.607zM575.727 525.214a19.607 19.607 0 01-19.607 19.607 19.607 19.607 0 01-19.606-19.607 19.607 19.607 0 0119.606-19.606 19.607 19.607 0 0119.607 19.606zM736.908 290.188a19.607 19.607 0 01-19.606 19.606 19.607 19.607 0 01-19.607-19.606 19.607 19.607 0 0119.607-19.607 19.607 19.607 0 0119.606 19.607zM509.534 195.477a19.607 19.607 0 0019.607 19.607 19.607 19.607 0 0019.606-19.607 19.607 19.607 0 00-19.606-19.606 19.607 19.607 0 00-19.607 19.606zM552.993 121.369a19.607 19.607 0 01-19.606 19.606 19.607 19.607 0 01-19.607-19.606 19.607 19.607 0 0119.607-19.607 19.607 19.607 0 0119.606 19.607zM710.58-103.533a19.607 19.607 0 0019.606 19.607 19.607 19.607 0 0019.607-19.607 19.607 19.607 0 00-19.607-19.606 19.607 19.607 0 00-19.607 19.606zM601.88-102.011a19.607 19.607 0 01-19.606 19.606 19.607 19.607 0 01-19.607-19.606 19.607 19.607 0 0119.607-19.607 19.607 19.607 0 0119.606 19.607zM242 536.242a19.607 19.607 0 01-19.607 19.607 19.607 19.607 0 01-19.606-19.607 19.607 19.607 0 0119.606-19.606A19.607 19.607 0 01242 536.242zM341.749 445.858a19.607 19.607 0 0019.606 19.607 19.607 19.607 0 0019.607-19.607 19.607 19.607 0 00-19.607-19.606 19.607 19.607 0 00-19.606 19.606zM558.738 430.94a19.607 19.607 0 01-19.607 19.607 19.607 19.607 0 01-19.606-19.607 19.607 19.607 0 0119.606-19.606 19.607 19.607 0 0119.607 19.606zM172.053 376.91a19.607 19.607 0 0019.607 19.607 19.607 19.607 0 0019.607-19.606 19.607 19.607 0 00-19.607-19.607 19.607 19.607 0 00-19.607 19.607zM493.942-32.96a19.607 19.607 0 01-19.607 19.606 19.607 19.607 0 01-19.607-19.606 19.607 19.607 0 0119.607-19.607 19.607 19.607 0 0119.607 19.607zM207.03 279.082a19.607 19.607 0 0019.606 19.606 19.607 19.607 0 0019.607-19.606 19.607 19.607 0 00-19.607-19.607 19.607 19.607 0 00-19.607 19.607zM417.77 81.029a19.607 19.607 0 0019.607 19.606 19.607 19.607 0 0019.607-19.606 19.607 19.607 0 00-19.607-19.607 19.607 19.607 0 00-19.606 19.607zM316.614-102.603a19.607 19.607 0 01-19.607 19.606 19.607 19.607 0 01-19.606-19.606 19.607 19.607 0 0119.606-19.607 19.607 19.607 0 0119.607 19.607zM84.145 490.412a19.607 19.607 0 01-19.607 19.606 19.607 19.607 0 01-19.606-19.606 19.607 19.607 0 0119.606-19.607 19.607 19.607 0 0119.607 19.607zM-.69 192.711a19.607 19.607 0 0019.608 19.607 19.607 19.607 0 0019.606-19.607 19.607 19.607 0 00-19.606-19.607A19.607 19.607 0 00-.69 192.711zM154.558 263.122a19.607 19.607 0 01-19.606 19.607 19.607 19.607 0 01-19.607-19.607 19.607 19.607 0 0119.607-19.606 19.607 19.607 0 0119.606 19.606zM438.87 677.303a19.607 19.607 0 0019.606 19.607 19.607 19.607 0 0019.607-19.607 19.607 19.607 0 00-19.607-19.607 19.607 19.607 0 00-19.607 19.607zM154.587 121.469a19.607 19.607 0 01-19.606 19.606 19.607 19.607 0 01-19.607-19.606 19.607 19.607 0 0119.607-19.607 19.607 19.607 0 0119.606 19.607zM333.11 44.65a19.607 19.607 0 0019.607 19.606 19.607 19.607 0 0019.607-19.607 19.607 19.607 0 00-19.607-19.606 19.607 19.607 0 00-19.606 19.606zM195.68 669.442a19.607 19.607 0 0019.606 19.606 19.607 19.607 0 0019.607-19.606 19.607 19.607 0 00-19.607-19.607 19.607 19.607 0 00-19.606 19.607zM-19.651 333.85A19.607 19.607 0 00-.045 353.457a19.607 19.607 0 0019.607-19.607A19.607 19.607 0 00-.045 314.244 19.607 19.607 0 00-19.65 333.85zM321.529 196.053a19.607 19.607 0 01-19.607 19.606 19.607 19.607 0 01-19.607-19.606 19.607 19.607 0 0119.607-19.607 19.607 19.607 0 0119.606 19.607zM81.07-52.818a19.607 19.607 0 0019.606 19.607 19.607 19.607 0 0019.607-19.607 19.607 19.607 0 00-19.607-19.606A19.607 19.607 0 0081.07-52.818zM48.699 1.764A19.607 19.607 0 0129.092 21.37 19.607 19.607 0 019.485 1.764a19.607 19.607 0 0119.607-19.607A19.607 19.607 0 0148.699 1.764zM236.291 115.525a19.607 19.607 0 0019.607 19.606 19.607 19.607 0 0019.606-19.606 19.607 19.607 0 00-19.606-19.607 19.607 19.607 0 00-19.607 19.607z" style="isolation:auto;mix-blend-mode:normal;solid-color:#000;solid-opacity:1" overflow="visible" transform="matrix(.26458 0 0 .26458 0 127.667)"/></g><use xlink:href="#a" transform="translate(0 -209.02)" width="100%" height="100%"/></g></svg>