<svg xmlns="http://www.w3.org/2000/svg" width="673.622" height="684.193" viewBox="0 0 178.229 181.026"><path d="M155.813 13.18c-1.035-3.058-2.416-4.143-.59-9.321 1.823-5.18 8.728-3.7 9.665-3.551.937.148 5.968 1.38 8.828 3.945 2.86 2.565 4.29 6.313 4.29 8.335 0 2.022.84 3.107-.739 8.138-1.578 5.03-4.044 4.833-5.277 5.03-1.233.198-3.65-.148-3.65-.148s-20.642 42.137-23.432 43.81c-2.79 1.675-7.95 1.815-9.067-.417-1.116-2.232-3.627-.558-2.093-9.486 1.535-8.927 9.346-19.25 11.16-23.435 1.813-4.185 10.905-22.9 10.905-22.9zM16.495 64.67c-2.255-2.71-2.594-4.68-8.043-5.706-5.45-1.026-7.274 6.66-7.568 7.675-.295 1.014-1.486 6.7-.5 10.955.984 4.256 3.675 7.737 5.48 8.847 1.802 1.11 2.39 2.54 7.593 3.73 5.205 1.19 6.152-1.373 6.89-2.493.737-1.12 1.53-3.714 1.53-3.714s46.978 2.577 49.741.718c2.763-1.86 5.238-6.92 3.755-9.257-1.482-2.336 1.154-3.917-7.507-7.29-8.66-3.373-21.424-1.261-25.982-1.753-4.557-.492-25.389-1.712-25.389-1.712z" fill="#fca"/><path d="M154.803 11.935c7.213 4.988 11.593 10.393 16.177 15.707 6.101 7.073 3.946 11.939 3.946 11.939s-22.905 34.267-27.297 45.9c-10 26.49-7.82 48.257-8.756 69.498-.966 21.922-6.7 24.806-6.7 24.806s-10.172 2.365-18.958.566c-13.41-2.746-18.25-7.16-18.25-7.16s12.915-85.465 20-97.755c6.515-11.3 15.022-19.032 18.48-25.252 3.723-6.697 21.358-38.25 21.358-38.25z" fill="#292929"/><path d="M117.156 74.538c.198 9.075-7.23 94.374-10.585 97.925-3.354 3.55-26.28 1.673-41.62-7.618-6.162-3.733-19.47-16.99-19.47-16.99S81.085 99.229 78.753 89.37c-2.713-11.467.048.104.048.104s-8.1 1.476-35.43 1.505c-16.97.019-21.262-1.5-21.262-1.5l-3.484-26.282S78.49 62.11 95.851 52.247c17.36-9.864 21.305 22.292 21.305 22.292z" fill="#2b2b2b"/><path d="M116.694 69.554c0 3.759.8 8.704.8 8.704s-10.305-2.473-13.059-7.32c-2.754-4.845-1.42-11.274-.977-11.076.444.198 8.35 11.77 13.236 9.692z" fill="#272727"/><path d="M119.651 69.026c-1.506 7.552-1.936 9.18-1.936 9.18s14.518 2.963 16.776-5.33c2.258-8.293 1.29-5.48 1.29-5.48l-.537-8.144s-7.42 10.366-15.593 9.773z" fill="#252525"/><g transform="translate(-268.839 -42.065) scale(.26922)" fill="#fb3a50"><path d="M1200.39 269.446c-2.782.043-4.621 2.91-3.499 5.456 5.363 12.66 10.895 21.443 15.14 27.103.344.458.666.865.995 1.285-2.467 1.116-5.67 2.878-9.787 5.574a346.55 346.55 0 01-8.863-9.585c-6.046-6.789-12.655-15.233-14.038-18.482a3.888 3.888 0 00-3.668-2.415 3.888 3.888 0 00-3.486 5.462c2.568 6.028 9.188 13.648 15.384 20.605a387.434 387.434 0 008.2 8.903c-3.014 2.19-6.392 4.772-10.181 7.814a267.889 267.889 0 00-7.77-8.63c-6.765-7.18-15.128-15.355-22.83-19.687a3.888 3.888 0 00-1.85-.525 3.888 3.888 0 00-1.964 7.3c6.044 3.4 14.434 11.292 20.985 18.243a259.308 259.308 0 017.416 8.234 509.8 509.8 0 00-8.414 7.202c-2.197-1.979-16.8-15.182-29.402-27.942a3.888 3.888 0 00-2.784-1.195 3.888 3.888 0 00-2.748 6.658c12.027 12.177 25.523 24.454 29.077 27.665a761.944 761.944 0 00-7.599 6.897c-5.795-3.162-17.806-9.285-28.445-11.844a3.871 3.871 0 00-1.158-.116c-4.52.224-5.076 6.685-.66 7.678 12.527 3.013 24.206 9.903 24.206 9.903 235.213 107.401 328.946 44.224 328.946 44.224s-93.794-13.121-165.719-42.28-94.765-51.028-94.765-51.028-13.225-21.12-17.057-30.055a3.888 3.888 0 00-3.662-2.422z"/><path d="M1350.865 392.315c-81.159 70.953-112.261 87.962-112.261 87.962s-22.39 10.938-31.676 13.812a3.89 3.89 0 00-2.795 3.39c-.249 2.771 2.409 4.9 5.06 4.05 13.152-4.006 22.468-8.587 28.54-12.215a76.676 76.676 0 003.876-2.472c1.687 1.928 4.223 4.303 8.151 7.232a343.324 343.324 0 01-9.704 9.05c-6.765 6.072-15.183 12.713-18.427 14.11a3.888 3.888 0 00-2.401 3.678 3.888 3.888 0 005.476 3.464c6.018-2.591 13.613-9.242 20.546-15.466a344.526 344.526 0 0011.039-10.336c2.656 1.727 5.732 3.6 9.231 5.616a271.425 271.425 0 00-8.786 8.36c-6.988 6.965-14.92 15.555-19.034 23.375a3.888 3.888 0 00-.472 1.866 3.888 3.888 0 007.353 1.756c3.228-6.137 10.88-14.746 17.644-21.49a258.767 258.767 0 0110.457-9.853 471.209 471.209 0 009.846 5.248c-2.628 5.675-9.803 20.973-17.114 34.739a3.888 3.888 0 00-.309 3.015 3.888 3.888 0 007.175.632c7.272-13.692 14.395-28.844 17.194-34.883 5.258 2.56 9.169 4.249 12.056 5.367-1.302 6.95-3.108 18.817-2.437 28.763.02.388.1.772.236 1.138 1.564 4.247 7.894 2.848 7.523-1.662-.87-12.856 2.219-26.06 2.219-26.06s17.495-25.756 46.168-72.41c28.672-46.654-4.374-59.776-4.374-59.776z"/><ellipse cx="1454.756" cy="302.054" rx="97.212" ry="68.936" transform="matrix(.9984 .05668 -.0514 .99868 0 0)"/></g><path d="M87.413 36.78c-2.922.099-7.102 3.354-7.102 8.779s5.968 8.58 7.546 9.222c1.578.64 4.735 2.318 4.735 2.318s3.515 16.15 25.747 17.557c22.04 1.395 26.295-11.788 26.783-15.484.488-3.697 1.131-5.313-.07-10.898-1.132-5.261-1.116-9.26-.837-17.35.28-8.09-4.812-20.645-20.296-26.086-15.484-5.44-24.412-2.86-28.039-.14-3.627 2.72-8.509 6.557-9.625 13.95-1.116 7.394-.14 10.81.14 12.276.28 1.465.95 5.603 1.018 5.856z" fill="#fca"/><path d="M108.133 1.31c3.426-.142 13.277-.255 21.678 4.362 6.35 3.49 9.663 6.347 12.948 13.649 1.841 4.09 2.358 15.649 2.358 15.649s-5.523-6.647-10.557-7.284c-5.034-.636-11.675-.212-17.058 3.89-5.384 4.1-13.144 8.556-15.8 8.768-2.657.212-3.916.637-6.992-.424-3.076-1.06-3.682-3.312-6.407-3.185-1.479.07-1.408.098-1.408.098s-1.832-9.288-1.273-14.521c.56-5.233 1.608-8.627 3.705-12.163 2.097-3.536 6.502-5.87 7.27-6.081.77-.213 2.728-1.768 6.852-2.334 4.125-.566 4.684-.424 4.684-.424z" fill="#5a3400"/><path d="M107.806 40.224a.493.493 0 00-.14.96l9.95 3.557-10.008 5.13a.493.493 0 00.225.932.493.493 0 00.28-.082.493.493 0 000-.001l10.964-5.621a.493.493 0 00-.059-.904l-11.02-3.94a.493.493 0 00-.193-.031zm32.41.96a.493.493 0 00-.13.02l-10.429 3a.493.493 0 00-.083.915l9.87 4.917a.493.493 0 10.44-.882l-8.736-4.352 9.21-2.65a.493.493 0 00-.143-.968zm-6.915-8.48c-.983.122-1.77.21-2.739.718-.967.508-2.089 1.399-3.9 3.112a.493.493 0 10.677.717c1.788-1.69 2.86-2.525 3.681-2.955.82-.43 1.413-.49 2.403-.614 1.76-.22 3.408.76 4.094 1.129.028.015.423.31.844.677.42.366.93.828 1.417 1.28.976.902 1.873 1.762 1.873 1.762a.493.493 0 10.683-.711s-.903-.866-1.887-1.776a67.923 67.923 0 00-1.439-1.3c-.434-.377-.73-.643-1.023-.8-.596-.321-2.499-1.513-4.684-1.24zm-20.235-1.61c-4.843-.26-8.365 3.3-8.365 3.3a.493.493 0 10.697.697s3.284-3.245 7.614-3.012c2.226.12 3.336.608 4.333 1.502.998.894 1.88 2.269 3.404 4.092a.493.493 0 10.756-.633c-1.485-1.777-2.353-3.164-3.5-4.194-1.149-1.03-2.578-1.625-4.94-1.752z" style="line-height:normal;text-indent:0;text-align:start;text-decoration-line:none;text-decoration-style:solid;text-decoration-color:#000;text-transform:none;white-space:normal;isolation:auto;mix-blend-mode:normal;solid-color:#000;solid-opacity:1" font-weight="400" overflow="visible" color="#000" font-family="sans-serif" fill="#282828"/><path d="M129.918 60.005c-2.479-1.145-9.106-3.753-11.208-3.06-1.333.44-1.813 1.256-1.883 2.51-.07 1.257-.345 5.856.628 9.778.897 3.618 1.905 5.426 3.733 5.72 1.108.177 2.763-.417 3.8-1.152 2.22-1.573 2.837-2.788 4.045-6.172.534-1.498 1.57-5.658 1.674-6.347.1-.657-.267-1.034-.789-1.277z" fill="#ff3c3c"/></svg>