<!--
ロゴ「やんてね！」。illustration.svg から切り出したもので、直接は編集しない。

  字形はフォントをパス化したもの。閲覧環境に 'Noto Sans CJK JP' がある保証はなく、
  このサイトは CSP (font-src 'self') の下で外部フォントも読めないため、text 要素のまま
  置くと環境ごとに字形が変わる。差し替えるときもパス化した状態で書き出すこと。

  色は currentColor で受ける (ヘッダーの文字色に追従させるため)。
-->
<svg xmlns="http://www.w3.org/2000/svg" viewBox="0 0 32.5437 6.3500" role="img" aria-label="やんてね！"><g transform="translate(98.68959,41.27500)"><path d="m -98.767491,-38.693475 0.417042,0.897701 c 0.303946,-0.134302 0.749262,-0.374632 1.258195,-0.629098 l 0.190849,0.438248 c 0.360494,0.855289 0.728057,2.049868 0.947181,2.9405 l 0.968386,-0.254466 c -0.233261,-0.791674 -0.777537,-2.304335 -1.109756,-3.074802 l -0.197919,-0.438248 c 0.756331,-0.346357 1.526798,-0.636166 2.078142,-0.636166 0.530138,0 0.848221,0.289809 0.848221,0.650303 0,0.508933 -0.388768,0.798742 -0.918906,0.798742 -0.311014,0 -0.66444,-0.106028 -0.982523,-0.24033 l -0.0212,0.890633 c 0.268603,0.09896 0.706851,0.197918 1.08855,0.197918 1.081482,0 1.760059,-0.629097 1.760059,-1.618689 0,-0.819947 -0.657371,-1.484387 -1.75299,-1.484387 -0.318083,0 -0.66444,0.06362 -1.017866,0.169644 l 0.558413,-0.409973 c -0.24033,-0.254467 -0.770468,-0.71392 -1.024934,-0.90477 l -0.650303,0.452385 c 0.268603,0.204987 0.720988,0.650303 0.975454,0.904769 -0.409974,0.134302 -0.841153,0.311015 -1.272332,0.501865 l -0.33222,-0.671509 c -0.07775,-0.134302 -0.219124,-0.424111 -0.28274,-0.551344 l -0.918906,0.353426 c 0.14137,0.183781 0.318083,0.445316 0.417042,0.622029 0.106027,0.183781 0.212055,0.388768 0.311014,0.600823 l -0.636166,0.268603 c -0.113096,0.04948 -0.42411,0.155508 -0.699782,0.226193 z m 10.878437,-2.071074 -1.003729,-0.402905 c -0.120164,0.296878 -0.254466,0.530138 -0.346357,0.720988 -0.374631,0.671509 -1.823675,3.555461 -2.346745,4.969163 l 0.99666,0.339288 c 0.106028,-0.374631 0.353425,-1.166304 0.537207,-1.576277 0.254466,-0.57255 0.650303,-1.067345 1.130961,-1.067345 0.254467,0 0.395837,0.148438 0.417042,0.395836 0.02121,0.289809 0.01414,0.869427 0.04241,1.244058 0.02827,0.516001 0.395837,0.982523 1.180442,0.982523 1.081482,0 1.738853,-0.80581 2.106416,-2.014526 l -0.7634,-0.622028 c -0.204986,0.876495 -0.579617,1.668168 -1.194578,1.668168 -0.233261,0 -0.431179,-0.106028 -0.459453,-0.3817 -0.03534,-0.296877 -0.01414,-0.862358 -0.02827,-1.180441 -0.02827,-0.586686 -0.346357,-0.918906 -0.876495,-0.918906 -0.268604,0 -0.551344,0.06362 -0.812879,0.212055 0.353426,-0.622029 0.848221,-1.526798 1.194578,-2.035731 0.07775,-0.113096 0.155508,-0.233261 0.226193,-0.33222 z m 3.138423,0.388768 0.09189,0.968386 c 0.819947,-0.176713 2.261923,-0.33222 2.926363,-0.402905 -0.47359,0.360494 -1.046139,1.166304 -1.046139,2.18417 0,1.526798 1.399565,2.32554 2.876883,2.424499 l 0.33222,-0.968386 c -1.194578,-0.06362 -2.283128,-0.487727 -2.283128,-1.646963 0,-0.841153 0.636165,-1.760059 1.491455,-1.986251 0.374631,-0.08482 0.982523,-0.08482 1.364223,-0.09189 l -0.0071,-0.904769 c -0.494796,0.01414 -1.272332,0.06362 -2.000388,0.120164 -1.293538,0.113097 -2.459842,0.219124 -3.046528,0.268604 -0.14137,0.01414 -0.417042,0.02827 -0.699783,0.03534 z m 8.489281,-0.23326 -0.02827,0.544275 c -0.303946,0.04241 -0.61496,0.07775 -0.819947,0.09189 -0.247398,0.01414 -0.409974,0.01414 -0.614961,0.0071 l 0.09189,0.904769 1.286469,-0.162576 -0.03534,0.494796 c -0.395836,0.593755 -1.109756,1.526798 -1.512661,2.021594 l 0.551344,0.770468 c 0.247398,-0.33222 0.600823,-0.848222 0.897701,-1.293538 l -0.02827,1.555073 c 0,0.113096 -0.0071,0.367562 -0.02121,0.523069 h 0.975455 c -0.02121,-0.162575 -0.04241,-0.417042 -0.04948,-0.544275 -0.04241,-0.66444 -0.04241,-1.258195 -0.04241,-1.837813 0,-0.212055 0.0071,-0.438247 0.0212,-0.678577 0.565481,-0.636165 1.335949,-1.265263 1.972115,-1.265263 0.544275,0 0.890632,0.508933 0.890632,1.265263 0,0.275672 -0.01414,0.530139 -0.03534,0.770468 -0.261534,-0.08482 -0.530138,-0.127233 -0.812878,-0.127233 -0.85529,0 -1.399565,0.466522 -1.399565,1.102687 0,0.798742 0.600823,1.145099 1.392496,1.145099 0.706851,0 1.145099,-0.318083 1.399565,-0.85529 0.176713,0.162576 0.353426,0.346357 0.516002,0.544276 l 0.459453,-0.735125 c -0.24033,-0.261535 -0.480659,-0.473591 -0.728057,-0.650303 0.05655,-0.346357 0.07775,-0.728057 0.07775,-1.13803 0,-1.286469 -0.600824,-2.120553 -1.604552,-2.120553 -0.720988,0 -1.484387,0.516001 -2.056936,1.010796 l 0.0071,-0.06362 c 0.120165,-0.183781 0.268603,-0.417042 0.360494,-0.537207 l -0.261535,-0.339288 c 0.05655,-0.445317 0.113096,-0.805811 0.155507,-1.003729 l -1.032002,-0.03534 c 0.03534,0.219123 0.02827,0.431179 0.02827,0.636166 z m 3.329268,3.915954 c -0.14137,0.360494 -0.367562,0.579618 -0.706851,0.579618 -0.303946,0 -0.565481,-0.106028 -0.565481,-0.388768 0,-0.233261 0.261535,-0.367563 0.551344,-0.367563 0.24033,0 0.487727,0.06362 0.720988,0.176713 z" id="text112" style="stroke-width:0.294521;stroke-linecap:round;stroke-linejoin:round" aria-label="やんてね！" fill="currentColor" /><path d="m -68.130971,-37.446165 0.697587,0.182202 0.795566,-2.290735 0.30035,-1.010092 -1.135288,-0.296524 -0.231964,1.027953 z m -0.12636,1.910296 c 0.341955,0.08931 0.666146,-0.08901 0.759033,-0.444645 0.09467,-0.362471 -0.100905,-0.676557 -0.442859,-0.765871 -0.341954,-0.08932 -0.666146,0.08901 -0.760819,0.451484 -0.09289,0.355632 0.09585,0.667932 0.444645,0.759032 z" style="stroke-width:0.294521;stroke-linecap:round;stroke-linejoin:round" id="path1-8" fill="currentColor" /></g></svg>
