<svg xmlns="http://www.w3.org/2000/svg" width="256" height="256"><path d="M0 0v256h255.998V0z" fill="#fca"/><path d="M0 0v62.116C29.93 47.806 69.194 23.884 102.1 0z" fill="#5a3400"/><path style="line-height:normal;text-indent:0;text-align:start;text-decoration-line:none;text-decoration-style:solid;text-decoration-color:#000;text-transform:none;white-space:normal;isolation:auto;mix-blend-mode:normal;solid-color:#000;solid-opacity:1" d="M16.906 0A130.174 130.176 0 000 10.886v12.24C5.266 18.486 20.432 6.308 41.304 0zM93.81 0c7.492 2.416 13.078 5.936 18.322 10.64 9.544 8.556 17.986 21.706 32.564 39.15a4.72 4.72 0 107.24-6.05c-14.21-17.01-22.516-30.282-33.5-40.13a62.58 62.58 0 00-4.41-3.61zm162.188 3.468c-5.748.958-11.198 2.398-17.41 5.656-9.258 4.85-19.988 13.376-37.33 29.77a4.72 4.72 0 006.486 6.856c17.106-16.17 27.376-24.156 35.228-28.272 4.672-2.448 8.64-3.6 13.028-4.416V3.468zM20.85 74.2a4.72 4.72 0 00-1.32 9.186l95.18 34.028-95.744 49.084a4.72 4.72 0 002.152 8.92 4.72 4.72 0 002.676-.786 4.72 4.72 0 000-.008l104.904-53.784a4.72 4.72 0 00-.564-8.644L22.7 74.496a4.72 4.72 0 00-1.84-.294h-.01zm235.148 30.58l-26.068 7.5a4.72 4.72 0 00-.8 8.76L256 134.424v-10.546l-11.808-5.886L256 114.596z" font-weight="400" overflow="visible" color="#000" font-family="sans-serif" fill="#282828"/><path d="M134.6 233.092c-3.706-.068-6.896.268-9.41 1.1-11.93 3.936-16.678 11.072-17.788 21.808h107.614c-24.532-10.03-60.08-22.53-80.416-22.908z" fill="#ff3c3c"/></svg>